[
    {
      "frame": 114,
      "pts": 114.0,
      "pts_time": 3.8,
      "score": 0.445904
    },
    {
      "frame": 159,
      "pts": 159.0,
      "pts_time": 5.3,
      "score": 0.440126
    },
    {
      "frame": 422,
      "pts": 422.0,
      "pts_time": 14.06,
      "score": 0.440126
    }
  ]